# File created by Blade
# Date/Time:  Mon Nov 18 18:33:23 2013
# Frame Rate: 100.000 fps
#------------------------------------------------------
:FULLY-SPECIFIED
:DEGREES
47
root 51.459705 0.269081 52.565011 -5.556009 3.579108 -128.578791
Spine 6.911173 -0.390163 -0.945913
Spine1 2.113074 1.653627 -1.942924
Spine2 0.731571 -1.843882 -1.989962
NeckDummy 0.002275 -0.077400 -0.016449 -0.520235 1.660095 -0.580543
Neck 21.686367 1.865238 28.567312
Head -0.334314 0.386819 0.160032 -33.628176 -4.430591 -0.902986
LeftShoulderDummy -0.057042 -0.076146 -0.002786 -0.488912 1.531491 -0.404369
LeftShoulder 10.494317 -4.220176 17.741595
LeftArm 3.520102 44.346667 15.707384
LeftForeArm 90.936813
LeftForeArmRoll -29.190956
LeftHand -9.275730 5.003113 -2.579685
LeftHandThumb1 15.310287 13.718051
LeftHandIndex1 16.469132 42.409722
LeftHandPinky1 14.178204 46.923709
RightShoulderDummy -0.022230 -0.056651 0.040162 -0.532783 -1.691257 0.651435
RightShoulder 8.344588 3.244733 21.131869
RightArm -53.196724 56.439523 -7.430122
RightForeArm 114.004541
RightForeArmRoll 6.186124
RightHand -17.251020 -14.922891 12.219741
RightHandThumb1 -1.043999 13.938944
RightHandIndex1 14.168602 61.264855
RightHandPinky1 19.341928 70.470126
LeftUpLeg 15.533670 10.440241 -6.905302
LeftLeg 28.833663
LeftFoot 0.320784 -0.435519 -0.333410 -11.751770 11.734262 -9.350932
LeftToeBase -1.927906
RightUpLeg 13.812178 14.396015 -6.338383
RightLeg 34.340392
RightFoot -0.437067 0.276120 0.095043 -3.745693 2.365925 -21.396153
RightToeBase -0.923717
48
root 51.503054 0.270032 52.514602 -5.480312 3.580353 -128.519385
Spine 6.866489 -0.404886 -0.924656
Spine1 2.107983 1.652710 -1.904492
Spine2 0.725843 -1.818488 -2.037510
NeckDummy 0.002461 -0.081688 -0.016177 -0.497225 1.691822 -0.574734
Neck 21.615208 1.723481 28.476506
Head -0.333322 0.388533 0.160877 -33.689462 -4.396596 -0.876639
LeftShoulderDummy -0.056133 -0.080158 -0.003781 -0.465242 1.562973 -0.400078
LeftShoulder 10.493872 -4.267381 17.708823
LeftArm 3.686034 44.308063 15.845728
LeftForeArm 90.923522
LeftForeArmRoll -29.459221
LeftHand -9.181166 5.037054 -2.424610
LeftHandThumb1 15.460950 13.375005
LeftHandIndex1 16.603422 42.085415
LeftHandPinky1 14.209828 46.976264
RightShoulderDummy -0.022526 -0.061006 0.039949 -0.510132 -1.721422 0.642704
RightShoulder 8.334371 3.330071 21.127766
RightArm -53.318595 56.639409 -7.740202
RightForeArm 113.973271
RightForeArmRoll 6.135652
RightHand -17.346394 -14.428167 12.039592
RightHandThumb1 -1.181274 14.058284
RightHandIndex1 14.147455 60.884705
RightHandPinky1 19.364659 70.171299
LeftUpLeg 15.417001 10.503319 -6.959262
LeftLeg 28.744302
LeftFoot 0.321309 -0.436709 -0.325398 -11.851150 11.769228 -9.243643
LeftToeBase -1.931645
RightUpLeg 14.098924 14.368193 -6.340467
RightLeg 34.242583
RightFoot -0.433052 0.271386 0.106405 -3.752104 2.160187 -21.420071
RightToeBase -0.992216
49
root 51.553305 0.270402 52.454105 -5.428460 3.517532 -128.460622
Spine 6.835855 -0.362364 -0.923891
Spine1 2.103161 1.672409 -1.897609
Spine2 0.732061 -1.833460 -2.052980
NeckDummy 0.002616 -0.083320 -0.016345 -0.492354 1.705549 -0.580002
Neck 21.562374 1.621547 28.423942
Head -0.333729 0.387470 0.162483 -33.701416 -4.407515 -0.870471
LeftShoulderDummy -0.056696 -0.081990 -0.004732 -0.461122 1.577004 -0.403925
LeftShoulder 10.393197 -4.288458 17.679236
LeftArm 3.679971 44.278015 15.834276
LeftForeArm 90.938557
LeftForeArmRoll -29.527724
LeftHand -9.133059 5.029881 -2.438241
LeftHandThumb1 15.545923 13.406130
LeftHandIndex1 16.513801 42.505637
LeftHandPinky1 14.195110 46.973880
RightShoulderDummy -0.022724 -0.062434 0.039833 -0.505447 -1.734703 0.647251
RightShoulder 8.303094 3.382560 21.077642
RightArm -53.501441 56.839362 -8.068495
RightForeArm 113.926248
RightForeArmRoll 5.758045
RightHand -17.303068 -14.445257 11.849540
RightHandThumb1 -1.239880 14.000389
RightHandIndex1 14.313095 60.835635
RightHandPinky1 19.477423 70.298805
LeftUpLeg 15.480515 10.700706 -6.999100
LeftLeg 28.670296
LeftFoot 0.326007 -0.438549 -0.324825 -11.836824 11.611788 -9.140997
LeftToeBase -1.909952
RightUpLeg 14.372312 14.216339 -6.282677
RightLeg 34.138165
RightFoot -0.435833 0.260055 0.101232 -3.734677 2.007114 -21.469842
RightToeBase -0.996801
50
root 51.600234 0.272961 52.395045 -5.364196 3.496290 -128.348068
Spine 6.774526 -0.343389 -0.932684
Spine1 2.094029 1.687263 -1.920975
Spine2 0.752479 -1.853801 -2.083853
NeckDummy 0.002796 -0.086717 -0.016857 -0.482498 1.730995 -0.586442
Neck 21.514270 1.520417 28.383125
Head -0.333821 0.384211 0.163325 -33.698930 -4.434298 -0.882336
LeftShoulderDummy -0.056450 -0.085429 -0.006274 -0.451540 1.603297 -0.412479
LeftShoulder 10.381035 -4.340331 17.670415
LeftArm 3.851078 44.223412 15.944167
LeftForeArm 90.966143
LeftForeArmRoll -29.481493
LeftHand -9.251935 5.251947 -2.482976
LeftHandThumb1 15.610090 13.405071
LeftHandIndex1 16.553426 42.259571
LeftHandPinky1 14.861665 46.761898
RightShoulderDummy -0.022794 -0.065504 0.039356 -0.495882 -1.760032 0.654154
RightShoulder 8.295992 3.439254 21.059560
RightArm -53.595255 57.020920 -8.279676
RightForeArm 113.845094
RightForeArmRoll 5.319185
RightHand -17.223361 -14.716162 11.861112
RightHandThumb1 -1.498625 14.105959
RightHandIndex1 14.271497 61.253366
RightHandPinky1 19.587644 70.582207
LeftUpLeg 15.306656 10.776891 -7.035505
LeftLeg 28.512536
LeftFoot 0.331187 -0.438426 -0.325801 -11.935422 11.645042 -8.980376
LeftToeBase -1.997621
RightUpLeg 14.680533 14.128816 -6.198508
RightLeg 33.989796
RightFoot -0.432137 0.251520 0.102084 -3.766370 1.906149 -21.536146
RightToeBase -0.954707
